<svg width="779" height="833" viewBox="0 0 779 833" fill="none" xmlns="http://www.w3.org/2000/svg">
<path d="M313.024 52.3724C319.42 47.9035 340.195 49.4931 347.243 54.3857C360.72 63.741 366.14 103.142 368.624 144.808C370.146 170.43 370.147 170.43 390.621 155.215C419.429 133.802 452.439 125.585 491.431 130.11C537.514 135.459 577.257 168.194 596.42 216.574C614.539 262.324 616.572 303.517 602.456 339.007C588.528 374.02 549.79 409.321 511.968 421.476C495.877 426.647 467.117 429.063 448.054 426.85C380.607 419.022 337.769 377.302 318.373 300.548C313.341 280.652 305.414 228.687 300.752 185.082C291.794 101.257 290.386 66.2876 313.024 52.3724ZM475.248 212.961C429.933 203.088 403.819 230.521 415.057 276.191C428.721 331.721 479.032 342.307 516.288 297.491C541.922 266.66 520.65 222.849 475.248 212.961Z" fill="#3A3034"/>
<path fill-rule="evenodd" clip-rule="evenodd" d="M586.999 441.922C458.899 438.63 385.196 592.16 467.503 690.849C531.039 767.026 683.834 747.522 658.735 666.437C651.092 641.745 641.299 637.94 607.668 646.588C548.221 661.873 503.458 616.172 528.728 565.977C555.235 513.326 617.712 520.567 640.009 578.881C657.376 624.314 692.98 628.307 713.697 587.156C742.799 529.351 668.35 444.016 586.999 441.922Z" fill="#3A3034"/>
<path d="M380.409 553.241C382.923 562.732 383.764 569.228 382.369 571.408C367.474 594.67 322.784 597.783 313.925 576.18C313.113 574.199 312.337 572.335 311.597 570.584L380.409 553.241Z" fill="#3A3034"/>
<path d="M176.507 304.547C244.168 298.89 294.41 331.319 328.595 402.723C337.461 421.232 355.504 470.608 368.694 512.432C374.545 530.988 378.426 544.387 380.635 554.147L311.61 570.718C311.128 569.045 310.629 567.25 310.119 565.323C303.563 540.508 303.557 540.507 286.495 559.469C262.487 586.154 231.756 600.736 192.64 604.007C146.409 607.873 100.979 583.639 72.6313 540.002C45.8268 498.736 35.6914 458.756 42.5133 421.177C49.2454 384.103 80.24 341.843 114.912 322.452C129.663 314.202 157.383 306.147 176.507 304.547ZM262.919 436.212C265.057 396.174 221.826 373.748 179.509 392.942C175.881 394.587 172.531 396.368 169.462 398.268C168.846 398.649 168.243 399.036 167.65 399.426C167.165 399.746 166.687 400.068 166.217 400.394C165.505 400.887 164.81 401.388 164.133 401.895C163.714 402.209 163.301 402.526 162.895 402.845C136.827 423.33 138.221 454.233 169.01 479.606C179.354 488.13 189.836 493.471 199.865 495.904C203.035 496.673 206.16 497.149 209.221 497.346C209.555 497.368 209.887 497.386 210.219 497.401C210.555 497.416 210.891 497.427 211.226 497.435C211.471 497.441 211.715 497.445 211.959 497.447C239.246 497.703 260.841 475.164 262.919 436.212Z" fill="#3A3034"/> 
</svg>